ffmpeg started on 2016-12-07 at 02:32:21
Report written to "Output/x264/results/ffmpeg/crowd_run_2160p50medium14000k.log"
Command line:
Tools/ffmpeg/ffmpeg -benchmark -y -i Input/y4m/crowd_run_2160p50.y4m -c:v libx264 -preset medium -b:v 14000k -an Output/x264/encoded/crowd_run_2160p50medium14000k.mkv
ffmpeg version N-82227-gdb23fde Copyright (c) 2000-2016 the FFmpeg developers
  built with gcc 5.4.0 (Ubuntu 5.4.0-6ubuntu1~16.04.2) 20160609
  configuration: --prefix=/home/jaroslav/ffmpeg_build --pkg-config-flags=--static --extra-cflags=-I/home/jaroslav/ffmpeg_build/include --extra-ldflags=-L/home/jaroslav/ffmpeg_build/lib --bindir=/home/jaroslav/bin --enable-gpl --enable-libass --enable-libfdk-aac --enable-libfreetype --enable-libmp3lame --enable-libopus --enable-libtheora --enable-libvorbis --enable-libvpx --enable-libx264 --enable-libx265 --enable-nvenc --enable-libmfx --enable-libxvid --enable-libgsm --enable-libopencore-amrnb --enable-version3 --enable-nonfree
  libavutil      55. 35.100 / 55. 35.100
  libavcodec     57. 66.101 / 57. 66.101
  libavformat    57. 57.100 / 57. 57.100
  libavdevice    57.  2.100 / 57.  2.100
  libavfilter     6. 66.100 /  6. 66.100
  libswscale      4.  3.100 /  4.  3.100
  libswresample   2.  4.100 /  2.  4.100
  libpostproc    54.  2.100 / 54.  2.100
Input #0, yuv4mpegpipe, from 'Input/y4m/crowd_run_2160p50.y4m':
  Duration: 00:00:10.00, start: 0.000000, bitrate: 4976642 kb/s
    Stream #0:0: Video: rawvideo (I420 / 0x30323449), yuv420p(progressive), 3840x2160, SAR 1:1 DAR 16:9, 50 fps, 50 tbr, 50 tbn, 50 tbc
[libx264 @ 0x27b71c0] using SAR=1/1
[libx264 @ 0x27b71c0] using cpu capabilities: MMX2 SSE2Fast SSSE3 SSE4.2 AVX FMA3 AVX2 LZCNT BMI2
[libx264 @ 0x27b71c0] profile High, level 5.2
[libx264 @ 0x27b71c0] 264 - core 148 - H.264/MPEG-4 AVC codec - Copyleft 2003-2016 - http://www.videolan.org/x264.html - options: cabac=1 ref=3 deblock=1:0:0 analyse=0x3:0x113 me=hex subme=7 psy=1 psy_rd=1.00:0.00 mixed_ref=1 me_range=16 chroma_me=1 trellis=1 8x8dct=1 cqm=0 deadzone=21,11 fast_pskip=1 chroma_qp_offset=-2 threads=6 lookahead_threads=1 sliced_threads=0 nr=0 decimate=1 interlaced=0 bluray_compat=0 constrained_intra=0 bframes=3 b_pyramid=2 b_adapt=1 b_bias=0 direct=1 weightb=1 open_gop=0 weightp=2 keyint=250 keyint_min=25 scenecut=40 intra_refresh=0 rc_lookahead=40 rc=abr mbtree=1 bitrate=14000 ratetol=1.0 qcomp=0.60 qpmin=0 qpmax=69 qpstep=4 ip_ratio=1.40 aq=1:1.00
Output #0, matroska, to 'Output/x264/encoded/crowd_run_2160p50medium14000k.mkv':
  Metadata:
    encoder         : Lavf57.57.100
    Stream #0:0: Video: h264 (libx264) (H264 / 0x34363248), yuv420p, 3840x2160 [SAR 1:1 DAR 16:9], q=-1--1, 14000 kb/s, 50 fps, 1k tbn, 50 tbc
    Metadata:
      encoder         : Lavc57.66.101 libx264
    Side data:
      cpb: bitrate max/min/avg: 0/0/14000000 buffer size: 0 vbv_delay: -1
Stream mapping:
  Stream #0:0 -> #0:0 (rawvideo (native) -> h264 (libx264))
Press [q] to stop, [?] for help
frame=   15 fps=0.0 q=0.0 size=       0kB time=00:00:00.00 bitrate=N/A speed=   0x    frame=   29 fps= 23 q=0.0 size=       0kB time=00:00:00.00 bitrate=N/A speed=   0x    frame=   40 fps= 22 q=0.0 size=       0kB time=00:00:00.00 bitrate=N/A speed=   0x    frame=   45 fps= 19 q=0.0 size=       0kB time=00:00:00.00 bitrate=N/A speed=   0x    frame=   47 fps= 11 q=0.0 size=       0kB time=00:00:00.00 bitrate=N/A speed=   0x    frame=   52 fps= 10 q=32.0 size=       1kB time=-00:00:00.01 bitrate=N/A speed=N/A    frame=   55 fps=9.8 q=40.0 size=       1kB time=00:00:00.04 bitrate= 143.2kbits/s speed=0.00732x    frame=   58 fps=9.2 q=38.0 size=       1kB time=00:00:00.10 bitrate=  58.1kbits/s speed=0.016x    frame=   64 fps=9.3 q=48.0 size=       1kB time=00:00:00.22 bitrate=  26.6kbits/s speed=0.0322x    frame=   70 fps=9.5 q=48.0 size=       1kB time=00:00:00.34 bitrate=  17.2kbits/s speed=0.0462x    frame=   74 fps=9.4 q=47.0 size=       1kB time=00:00:00.42 bitrate=  13.9kbits/s speed=0.0534x    frame=   81 fps=9.6 q=47.0 size=       1kB time=00:00:00.56 bitrate=  10.5kbits/s speed=0.0665x    frame=   85 fps=9.5 q=47.0 size=       1kB time=00:00:00.64 bitrate=   9.2kbits/s speed=0.0717x    frame=   93 fps=9.6 q=46.0 size=       1kB time=00:00:00.80 bitrate=   7.3kbits/s speed=0.0829x    frame=   99 fps=9.7 q=46.0 size=       1kB time=00:00:00.92 bitrate=   6.4kbits/s speed=0.0903x    frame=  105 fps=9.8 q=46.0 size=       1kB time=00:00:01.04 bitrate=   5.6kbits/s speed=0.097x    frame=  110 fps=9.8 q=45.0 size=       1kB time=00:00:01.14 bitrate=   5.1kbits/s speed=0.102x    frame=  117 fps=9.8 q=45.0 size=       1kB time=00:00:01.28 bitrate=   4.6kbits/s speed=0.107x    frame=  121 fps=9.7 q=45.0 size=       1kB time=00:00:01.36 bitrate=   4.3kbits/s speed=0.109x    frame=  129 fps=9.8 q=45.0 size=       1kB time=00:00:01.52 bitrate=   3.9kbits/s speed=0.115x    frame=  136 fps=9.8 q=45.0 size=       1kB time=00:00:01.66 bitrate=   3.5kbits/s speed=0.12x    frame=  142 fps=9.9 q=44.0 size=       1kB time=00:00:01.78 bitrate=   3.3kbits/s speed=0.124x    frame=  147 fps=9.9 q=44.0 size=       1kB time=00:00:01.88 bitrate=   3.1kbits/s speed=0.126x    frame=  153 fps=9.9 q=44.0 size=       1kB time=00:00:02.00 bitrate=   2.9kbits/s speed=0.129x    frame=  159 fps=9.9 q=44.0 size=       1kB time=00:00:02.12 bitrate=   2.8kbits/s speed=0.132x    frame=  164 fps=9.9 q=44.0 size=       1kB time=00:00:02.22 bitrate=   2.6kbits/s speed=0.134x    frame=  169 fps=9.9 q=44.0 size=       1kB time=00:00:02.32 bitrate=   2.5kbits/s speed=0.136x    frame=  173 fps=9.8 q=44.0 size=       1kB time=00:00:02.40 bitrate=   2.4kbits/s speed=0.136x    frame=  179 fps=9.9 q=44.0 size=       1kB time=00:00:02.52 bitrate=   2.3kbits/s speed=0.139x    frame=  185 fps=9.9 q=44.0 size=    5123kB time=00:00:02.64 bitrate=15891.2kbits/s speed=0.142x    frame=  190 fps=9.9 q=44.0 size=    5123kB time=00:00:02.74 bitrate=15311.5kbits/s speed=0.142x    frame=  194 fps=9.8 q=44.0 size=    5123kB time=00:00:02.82 bitrate=14877.2kbits/s speed=0.142x    frame=  201 fps=9.8 q=44.0 size=    5123kB time=00:00:02.96 bitrate=14173.8kbits/s speed=0.144x    frame=  206 fps=9.8 q=44.0 size=    5123kB time=00:00:03.06 bitrate=13710.8kbits/s speed=0.145x    frame=  213 fps=9.8 q=44.0 size=    5123kB time=00:00:03.20 bitrate=13111.1kbits/s speed=0.147x    frame=  220 fps=9.8 q=44.0 size=    5123kB time=00:00:03.34 bitrate=12561.7kbits/s speed=0.149x    frame=  225 fps=9.8 q=44.0 size=    5123kB time=00:00:03.44 bitrate=12196.7kbits/s speed=0.15x    frame=  229 fps=9.7 q=43.0 size=    5123kB time=00:00:03.52 bitrate=11919.5kbits/s speed=0.15x    frame=  234 fps=9.7 q=43.0 size=    5123kB time=00:00:03.62 bitrate=11590.4kbits/s speed=0.151x    frame=  241 fps=9.7 q=43.0 size=    5123kB time=00:00:03.76 bitrate=11158.9kbits/s speed=0.151x    frame=  247 fps=9.7 q=43.0 size=    5123kB time=00:00:03.88 bitrate=10813.9kbits/s speed=0.153x    frame=  253 fps=9.7 q=43.0 size=    5123kB time=00:00:04.00 bitrate=10489.6kbits/s speed=0.153x    frame=  260 fps=9.8 q=43.0 size=    5123kB time=00:00:04.14 bitrate=10134.9kbits/s speed=0.156x    frame=  265 fps=9.7 q=43.0 size=    5123kB time=00:00:04.24 bitrate=9895.9kbits/s speed=0.156x    frame=  270 fps=9.7 q=43.0 size=    5123kB time=00:00:04.34 bitrate=9668.0kbits/s speed=0.156x    frame=  277 fps=9.7 q=43.0 size=    5123kB time=00:00:04.48 bitrate=9365.9kbits/s speed=0.156x    frame=  284 fps=9.7 q=43.0 size=    5123kB time=00:00:04.62 bitrate=9082.2kbits/s speed=0.157x    frame=  290 fps=9.7 q=43.0 size=    5123kB time=00:00:04.74 bitrate=8852.3kbits/s speed=0.158x    frame=  294 fps=9.6 q=43.0 size=    5123kB time=00:00:04.82 bitrate=8705.4kbits/s speed=0.158x    frame=  296 fps=9.4 q=40.0 size=    5123kB time=00:00:04.86 bitrate=8633.8kbits/s speed=0.155x    frame=  301 fps=9.4 q=43.0 size=    8889kB time=00:00:04.96 bitrate=14677.6kbits/s speed=0.155x    frame=  307 fps=9.4 q=43.0 size=    8889kB time=00:00:05.08 bitrate=14331.0kbits/s speed=0.156x    frame=  315 fps=9.4 q=43.0 size=    8889kB time=00:00:05.24 bitrate=13893.5kbits/s speed=0.157x    frame=  322 fps=9.5 q=43.0 size=    8889kB time=00:00:05.38 bitrate=13532.0kbits/s speed=0.159x    frame=  326 fps=9.5 q=43.0 size=    8889kB time=00:00:05.46 bitrate=13333.8kbits/s speed=0.158x    frame=  331 fps=9.4 q=43.0 size=    8889kB time=00:00:05.56 bitrate=13094.0kbits/s speed=0.158x    frame=  339 fps=9.4 q=43.0 size=    8889kB time=00:00:05.72 bitrate=12727.8kbits/s speed=0.159x    frame=  345 fps=9.5 q=43.0 size=    8889kB time=00:00:05.84 bitrate=12466.3kbits/s speed=0.16x    frame=  349 fps=9.4 q=43.0 size=    8889kB time=00:00:05.92 bitrate=12297.9kbits/s speed=0.16x    frame=  353 fps=9.4 q=43.0 size=    8889kB time=00:00:06.00 bitrate=12133.9kbits/s speed=0.16x    frame=  359 fps=9.4 q=43.0 size=    8889kB time=00:00:06.12 bitrate=11896.0kbits/s speed=0.16x    frame=  366 fps=9.4 q=43.0 size=    8889kB time=00:00:06.26 bitrate=11630.0kbits/s speed=0.161x    frame=  372 fps=9.4 q=43.0 size=    8889kB time=00:00:06.38 bitrate=11411.3kbits/s speed=0.162x    frame=  377 fps=9.4 q=43.0 size=    8889kB time=00:00:06.48 bitrate=11235.3kbits/s speed=0.162x    frame=  383 fps=9.4 q=43.0 size=    8889kB time=00:00:06.60 bitrate=11031.0kbits/s speed=0.162x    frame=  389 fps=9.4 q=43.0 size=    8889kB time=00:00:06.72 bitrate=10834.1kbits/s speed=0.163x    frame=  392 fps=9.4 q=43.0 size=    8889kB time=00:00:06.78 bitrate=10738.2kbits/s speed=0.162x    frame=  399 fps=9.4 q=43.0 size=    8889kB time=00:00:06.92 bitrate=10521.0kbits/s speed=0.163x    frame=  404 fps=9.4 q=43.0 size=    8889kB time=00:00:07.02 bitrate=10371.1kbits/s speed=0.164x    frame=  407 fps=9.4 q=43.0 size=    8889kB time=00:00:07.08 bitrate=10283.2kbits/s speed=0.163x    frame=  414 fps=9.4 q=43.0 size=    8889kB time=00:00:07.22 bitrate=10083.9kbits/s speed=0.164x    frame=  417 fps=9.4 q=43.0 size=    8889kB time=00:00:07.28 bitrate=10000.8kbits/s speed=0.164x    frame=  423 fps=9.4 q=43.0 size=    8889kB time=00:00:07.40 bitrate=9838.6kbits/s speed=0.164x    frame=  430 fps=9.4 q=43.0 size=    8889kB time=00:00:07.54 bitrate=9656.0kbits/s speed=0.165x    frame=  436 fps=9.4 q=43.0 size=    8889kB time=00:00:07.66 bitrate=9504.7kbits/s speed=0.165x    frame=  443 fps=9.4 q=43.0 size=    8889kB time=00:00:07.80 bitrate=9334.1kbits/s speed=0.165x    frame=  449 fps=9.4 q=43.0 size=    8889kB time=00:00:07.92 bitrate=9192.7kbits/s speed=0.166x    frame=  455 fps=9.4 q=43.0 size=   14032kB time=00:00:08.04 bitrate=14295.4kbits/s speed=0.166x    frame=  460 fps=9.4 q=43.0 size=   14032kB time=00:00:08.14 bitrate=14119.8kbits/s speed=0.166x    frame=  467 fps=9.4 q=43.0 size=   14032kB time=00:00:08.28 bitrate=13881.1kbits/s speed=0.167x    frame=  473 fps=9.4 q=43.0 size=   14032kB time=00:00:08.40 bitrate=13682.8kbits/s speed=0.167x    frame=  479 fps=9.4 q=43.0 size=   14032kB time=00:00:08.52 bitrate=13490.1kbits/s speed=0.167x    frame=  484 fps=9.4 q=43.0 size=   14032kB time=00:00:08.62 bitrate=13333.6kbits/s speed=0.168x    frame=  489 fps=9.4 q=43.0 size=   14032kB time=00:00:08.72 bitrate=13180.7kbits/s speed=0.168x    frame=  495 fps=9.4 q=43.0 size=   14032kB time=00:00:08.84 bitrate=13001.8kbits/s speed=0.168x    frame=  497 fps=9.4 q=43.0 size=   14032kB time=00:00:08.88 bitrate=12943.2kbits/s speed=0.167x    frame=  500 fps=8.7 q=-1.0 Lsize=   17080kB time=00:00:09.94 bitrate=14075.0kbits/s speed=0.172x    
video:17075kB audio:0kB subtitle:0kB other streams:0kB global headers:0kB muxing overhead: 0.027469%
bench: utime=200.536s
bench: maxrss=1858724kB
[libx264 @ 0x27b71c0] frame I:2     Avg QP:32.66  size:513080
[libx264 @ 0x27b71c0] frame P:126   Avg QP:42.16  size: 64694
[libx264 @ 0x27b71c0] frame B:372   Avg QP:44.24  size: 22330
[libx264 @ 0x27b71c0] consecutive B-frames:  0.8%  0.0%  0.0% 99.2%
[libx264 @ 0x27b71c0] mb I  I16..4: 11.2% 75.1% 13.6%
[libx264 @ 0x27b71c0] mb P  I16..4:  1.8%  7.2%  0.1%  P16..4: 34.0%  5.9%  2.9%  0.0%  0.0%    skip:48.0%
[libx264 @ 0x27b71c0] mb B  I16..4:  0.0%  0.2%  0.0%  B16..8: 41.7%  1.5%  0.1%  direct: 0.3%  skip:56.2%  L0:44.6% L1:54.8% BI: 0.6%
[libx264 @ 0x27b71c0] final ratefactor: 35.03
[libx264 @ 0x27b71c0] 8x8 transform intra:77.9% inter:93.1%
[libx264 @ 0x27b71c0] coded y,uvDC,uvAC intra: 37.9% 61.6% 23.8% inter: 5.2% 6.3% 0.1%
[libx264 @ 0x27b71c0] i16 v,h,dc,p: 37% 23%  7% 33%
[libx264 @ 0x27b71c0] i8 v,h,dc,ddl,ddr,vr,hd,vl,hu: 18% 11% 24%  8%  7%  9%  8%  9%  7%
[libx264 @ 0x27b71c0] i4 v,h,dc,ddl,ddr,vr,hd,vl,hu: 21% 16% 15%  9%  9%  9%  8%  7%  6%
[libx264 @ 0x27b71c0] i8c dc,h,v,p: 72%  9% 15%  4%
[libx264 @ 0x27b71c0] Weighted P-Frames: Y:1.6% UV:0.8%
[libx264 @ 0x27b71c0] ref P L0: 68.4% 10.4% 15.5%  5.7%  0.1%
[libx264 @ 0x27b71c0] ref B L0: 94.0%  5.0%  0.9%
[libx264 @ 0x27b71c0] ref B L1: 98.9%  1.1%
[libx264 @ 0x27b71c0] kb/s:13987.61
